# xmcd CD database file
#
# Track frame offsets:
#	150
#	11450
#	34040
#	52625
#	61770
#	86025
#	92848
#	103800
#	115000
#	133668
#	143570
#	157950
#	170630
#	184250
#	203800
#
# Disc length: 2863 seconds
#
# Revision: 0
# Processed by: cddbd v1.5.1PL0 Copyright (c) Steve Scherf et al.
# Submitted via: CDex 1.51
#
DISCID=bd0b2d0f
DTITLE=Brian Henke - Many Waters
DYEAR=1900
DGENRE=New Age
TTITLE0=The Source/Mountain Stream
TTITLE1=Waterfalls
TTITLE2=Lake
TTITLE3=Fog Over Moonville
TTITLE4=Great Lake Suite
TTITLE5=Lilly Pond
TTITLE6=White Water Waltz
TTITLE7=A Swim In Raccoon Creek
TTITLE8=Salt Lake
TTITLE9=Streams
TTITLE10=Mississippi
TTITLE11=Morning Dew
TTITLE12=Butterfly On The Bayou
TTITLE13=Rivers
TTITLE14=Where The Sea Meets The Stars
EXTD=
EXTT0=
EXTT1=
EXTT2=
EXTT3=
EXTT4=
EXTT5=
EXTT6=
EXTT7=
EXTT8=
EXTT9=
EXTT10=
EXTT11=
EXTT12=
EXTT13=
EXTT14=
PLAYORDER=
